<?xml version="1.0" encoding="utf-8"?>
<!-- Generator: Adobe Illustrator 16.0.4, SVG Export Plug-In . SVG Version: 6.00 Build 0)  -->
<!DOCTYPE svg PUBLIC "-//W3C//DTD SVG 1.1//EN" "http://www.w3.org/Graphics/SVG/1.1/DTD/svg11.dtd">
<svg version="1.1" id="Layer_1" xmlns="http://www.w3.org/2000/svg" xmlns:xlink="http://www.w3.org/1999/xlink" x="0px" y="0px"
	 width="196px" height="34px" viewBox="0 0 196 34" enable-background="new 0 0 196 34" xml:space="preserve">
<path d="M8.469,1.786c0.98,0,1.914,0.14,2.801,0.42c0.887,0.28,1.529,0.561,1.926,0.84l0.595,0.42l1.016-1.366h0.175l0.561,6.723
	h-0.245c-0.234-1.657-0.923-3.209-2.066-4.657C12.087,2.719,10.5,1.996,8.469,1.996c-1.331,0-2.393,0.397-3.187,1.19
	C4.488,3.98,4.092,4.96,4.092,6.127c0,1.19,0.426,2.194,1.278,3.011c0.852,0.817,1.879,1.483,3.082,1.996
	c1.202,0.514,2.404,1.062,3.606,1.646c1.202,0.584,2.229,1.407,3.082,2.469c0.852,1.062,1.278,2.375,1.278,3.939
	c0,2.194-0.794,3.898-2.381,5.112c-1.588,1.214-3.525,1.82-5.812,1.82c-1.144,0-2.229-0.157-3.257-0.473
	c-1.027-0.314-1.774-0.636-2.241-0.963L2.061,24.23l-1.085,1.365h-0.14l-0.35-7.283h0.21c0.187,2.125,0.922,3.922,2.206,5.393
	c1.283,1.471,3.058,2.206,5.322,2.206c1.751,0,3.099-0.455,4.044-1.366c0.945-0.91,1.418-2.135,1.418-3.676
	c0-1.098-0.297-2.055-0.893-2.872c-0.595-0.817-1.336-1.447-2.224-1.891c-0.887-0.443-1.844-0.916-2.871-1.418
	c-1.027-0.501-1.984-0.992-2.871-1.471c-0.887-0.478-1.628-1.167-2.224-2.066C2.008,10.254,1.71,9.197,1.71,7.983
	c0-1.821,0.642-3.309,1.926-4.465C4.92,2.363,6.531,1.786,8.469,1.786z"/>
<path d="M26.134,8.684c2.147,0,3.863,0.788,5.147,2.363c1.284,1.576,1.926,3.659,1.926,6.25c0,2.521-0.747,4.623-2.241,6.302
	c-1.494,1.682-3.35,2.521-5.567,2.521c-1.774,0-3.269-0.793-4.482-2.381v6.688c0,1.447,0.134,2.352,0.403,2.715
	c0.268,0.361,1.021,0.577,2.259,0.647V34h-8.124v-0.21c1.121-0.094,1.815-0.327,2.083-0.7c0.268-0.374,0.403-1.25,0.403-2.627
	V13.061c0-1.167-0.158-1.926-0.473-2.276c-0.315-0.35-1.01-0.525-2.083-0.525v-0.21c0.653-0.023,1.441-0.152,2.363-0.385
	s1.687-0.455,2.294-0.666l0.875-0.315v2.906C22.177,9.652,23.916,8.684,26.134,8.684z M24.979,25.842
	c1.797,0,3.064-0.736,3.799-2.207s1.103-3.594,1.103-6.373c0-2.567-0.321-4.581-0.963-6.04c-0.643-1.458-1.757-2.188-3.344-2.188
	c-1.331,0-2.44,0.479-3.326,1.436c-0.888,0.958-1.331,2.451-1.331,4.482v5.673c0,1.751,0.368,3.059,1.103,3.921
	C22.755,25.41,23.741,25.842,24.979,25.842z"/>
<path d="M49.213,23.846l0.175,0.035c-0.023,0.07-0.047,0.151-0.07,0.244c-0.023,0.094-0.111,0.27-0.262,0.525
	c-0.152,0.258-0.321,0.479-0.508,0.666c-0.187,0.187-0.461,0.361-0.823,0.525c-0.362,0.162-0.753,0.244-1.173,0.244
	c-1.821,0-2.801-1.073-2.941-3.221c-0.491,1.051-1.226,1.855-2.206,2.416s-2.078,0.84-3.292,0.84c-1.588,0-2.825-0.338-3.712-1.016
	c-0.887-0.676-1.331-1.622-1.331-2.836c0-1.027,0.403-1.814,1.208-2.363c0.806-0.549,2.083-1.08,3.834-1.594l5.427-1.575v-2.661
	c0-1.774-0.269-3.064-0.805-3.87c-0.538-0.805-1.471-1.208-2.801-1.208c-1.821,0-2.883,0.958-3.187,2.872
	c-0.07,0.42-0.128,0.724-0.175,0.91c-0.047,0.187-0.128,0.42-0.245,0.7c-0.117,0.28-0.269,0.479-0.456,0.596
	c-0.187,0.117-0.42,0.175-0.7,0.175c-0.397,0-0.718-0.146-0.963-0.438s-0.368-0.636-0.368-1.033c0-1.027,0.548-1.96,1.646-2.801
	c1.097-0.84,2.79-1.26,5.077-1.26c3.969,0,5.953,1.587,5.953,4.762v9.594c0,0.701,0.093,1.191,0.28,1.471
	c0.187,0.281,0.513,0.421,0.98,0.421c0.327,0,0.613-0.093,0.858-0.28c0.245-0.187,0.403-0.373,0.473-0.561L49.213,23.846z
	 M39.303,25.456c1.237,0,2.252-0.42,3.046-1.261c0.793-0.84,1.19-1.938,1.19-3.291v-3.922l-4.027,1.226
	c-2.218,0.653-3.327,2.008-3.327,4.062C36.187,24.395,37.225,25.456,39.303,25.456z"/>
<path d="M53.698,8.648v4.587c0.373-1.307,0.939-2.392,1.698-3.256c0.758-0.863,1.698-1.295,2.819-1.295
	c0.583,0,1.091,0.146,1.523,0.438c0.432,0.292,0.647,0.707,0.647,1.243c0,0.444-0.117,0.8-0.35,1.068
	c-0.234,0.269-0.537,0.403-0.911,0.403c-0.537,0-1.015-0.338-1.436-1.015c-0.42-0.677-0.875-1.016-1.365-1.016
	c-0.607,0-1.156,0.52-1.646,1.558c-0.49,1.039-0.735,2.539-0.735,4.5v6.023c0,1.518,0.134,2.469,0.403,2.854
	c0.268,0.385,1.021,0.613,2.258,0.683v0.175H48.48v-0.175c1.144-0.093,1.844-0.338,2.101-0.735c0.256-0.396,0.385-1.318,0.385-2.766
	v-8.859c0-1.19-0.152-1.955-0.456-2.293c-0.304-0.338-1.004-0.508-2.101-0.508v-0.21c0.653-0.023,1.418-0.152,2.293-0.385
	c0.875-0.233,1.593-0.455,2.153-0.666L53.698,8.648z"/>
<path d="M64.556,5.077v4.132h4.657v0.245h-4.657v12.535c0,2.124,0.77,3.187,2.311,3.187c0.537,0,1.044-0.123,1.523-0.367
	c0.479-0.246,0.823-0.496,1.033-0.753l0.315-0.351l0.104,0.176c-0.117,0.163-0.286,0.367-0.508,0.612s-0.712,0.577-1.471,0.998
	c-0.759,0.42-1.558,0.63-2.398,0.63c-2.591,0-3.887-1.318-3.887-3.957V9.454h-1.821V9.279c0.911-0.21,1.821-0.718,2.731-1.523
	C63.4,6.95,64.03,6.058,64.38,5.077H64.556z"/>
<path d="M85.593,23.846l0.176,0.035c-0.023,0.07-0.048,0.151-0.07,0.244c-0.023,0.094-0.111,0.27-0.263,0.525
	c-0.152,0.258-0.321,0.479-0.508,0.666c-0.187,0.187-0.462,0.361-0.823,0.525c-0.362,0.162-0.752,0.244-1.173,0.244
	c-1.82,0-2.801-1.073-2.941-3.221c-0.49,1.051-1.226,1.855-2.206,2.416s-2.078,0.84-3.291,0.84c-1.588,0-2.825-0.338-3.712-1.016
	c-0.888-0.676-1.33-1.622-1.33-2.836c0-1.027,0.402-1.814,1.208-2.363c0.805-0.549,2.083-1.08,3.834-1.594l5.428-1.575v-2.661
	c0-1.774-0.269-3.064-0.806-3.87c-0.537-0.805-1.471-1.208-2.802-1.208c-1.82,0-2.883,0.958-3.187,2.872
	c-0.069,0.42-0.128,0.724-0.175,0.91c-0.047,0.187-0.128,0.42-0.245,0.7c-0.117,0.28-0.269,0.479-0.455,0.596
	c-0.188,0.117-0.42,0.175-0.7,0.175c-0.397,0-0.718-0.146-0.963-0.438s-0.367-0.636-0.367-1.033c0-1.027,0.548-1.96,1.646-2.801
	c1.097-0.84,2.789-1.26,5.077-1.26c3.968,0,5.952,1.587,5.952,4.762v9.594c0,0.701,0.093,1.191,0.28,1.471
	c0.187,0.281,0.514,0.421,0.98,0.421c0.327,0,0.613-0.093,0.858-0.28c0.245-0.187,0.402-0.373,0.473-0.561L85.593,23.846z
	 M75.684,25.456c1.237,0,2.252-0.42,3.046-1.261c0.794-0.84,1.191-1.938,1.191-3.291v-3.922l-4.027,1.226
	c-2.218,0.653-3.326,2.008-3.326,4.062C72.567,24.395,73.605,25.456,75.684,25.456z"/>
<path d="M100.054,14.986h-2.521v6.934c0,1.518,0.141,2.475,0.421,2.871s1.038,0.595,2.275,0.595v0.21h-9.033v-0.175
	c1.423-0.069,2.275-0.269,2.556-0.595c0.28-0.327,0.421-1.296,0.421-2.906V5.987c0-1.61-0.146-2.579-0.438-2.906
	c-0.292-0.327-1.138-0.525-2.538-0.595V2.311h8.823c2.895,0,5.153,0.531,6.775,1.593c1.622,1.062,2.435,2.574,2.435,4.535
	c0,2.008-0.876,3.601-2.627,4.779C104.852,14.397,102.668,14.986,100.054,14.986z M100.019,2.521h-2.486v12.221h2.347
	c1.891,0,3.314-0.566,4.271-1.698c0.957-1.132,1.436-2.644,1.436-4.535C105.586,4.517,103.73,2.521,100.019,2.521z"/>
<path d="M113.258,0v21.92c0,1.447,0.128,2.369,0.386,2.766c0.256,0.397,0.944,0.643,2.065,0.735v0.175h-7.669v-0.175
	c1.051-0.069,1.698-0.298,1.943-0.683s0.368-1.324,0.368-2.818V4.481c0-1.237-0.141-2.036-0.421-2.398
	c-0.279-0.362-0.979-0.542-2.101-0.542V1.4c0.7-0.023,1.5-0.151,2.398-0.385c0.898-0.233,1.629-0.467,2.188-0.7L113.258,0z"/>
<path d="M130.839,23.846l0.175,0.035c-0.023,0.07-0.048,0.151-0.07,0.244c-0.023,0.094-0.111,0.27-0.263,0.525
	c-0.151,0.258-0.321,0.479-0.508,0.666c-0.187,0.187-0.461,0.361-0.823,0.525c-0.361,0.162-0.752,0.244-1.172,0.244
	c-1.821,0-2.802-1.073-2.942-3.221c-0.49,1.051-1.225,1.855-2.205,2.416s-2.078,0.84-3.292,0.84c-1.588,0-2.825-0.338-3.712-1.016
	c-0.888-0.676-1.33-1.622-1.33-2.836c0-1.027,0.402-1.814,1.208-2.363s2.084-1.08,3.834-1.594l5.428-1.575v-2.661
	c0-1.774-0.269-3.064-0.806-3.87c-0.537-0.805-1.471-1.208-2.801-1.208c-1.821,0-2.884,0.958-3.187,2.872
	c-0.07,0.42-0.129,0.724-0.176,0.91c-0.047,0.187-0.128,0.42-0.244,0.7c-0.118,0.28-0.27,0.479-0.455,0.596
	c-0.188,0.117-0.421,0.175-0.701,0.175c-0.396,0-0.718-0.146-0.963-0.438s-0.367-0.636-0.367-1.033c0-1.027,0.548-1.96,1.646-2.801
	c1.097-0.84,2.789-1.26,5.077-1.26c3.969,0,5.953,1.587,5.953,4.762v9.594c0,0.701,0.093,1.191,0.28,1.471
	c0.186,0.281,0.513,0.421,0.979,0.421c0.327,0,0.613-0.093,0.858-0.28c0.245-0.187,0.402-0.373,0.473-0.561L130.839,23.846z
	 M120.929,25.456c1.237,0,2.253-0.42,3.047-1.261c0.793-0.84,1.19-1.938,1.19-3.291v-3.922l-4.027,1.226
	c-2.218,0.653-3.326,2.008-3.326,4.062C117.812,24.395,118.852,25.456,120.929,25.456z"/>
<path d="M138.591,25.666c1.4,0,2.532-0.332,3.396-0.998c0.863-0.665,1.471-1.43,1.821-2.293h0.21
	c-0.374,0.957-1.051,1.82-2.031,2.591s-2.311,1.155-3.991,1.155c-2.476,0-4.453-0.775-5.936-2.328s-2.224-3.625-2.224-6.215
	c0-2.498,0.747-4.604,2.241-6.32c1.493-1.716,3.35-2.574,5.567-2.574c1.961,0,3.513,0.59,4.657,1.768
	c1.144,1.179,1.751,2.854,1.82,5.025h-10.89c-0.047,0.887-0.07,1.599-0.07,2.136C133.163,22.982,134.973,25.666,138.591,25.666z
	 M137.646,8.858c-2.568,0-4.026,2.113-4.377,6.338h7.423c0.21-0.561,0.315-1.261,0.315-2.101
	C141.007,10.271,139.887,8.858,137.646,8.858z"/>
<path d="M149.529,8.684c0.7,0,1.377,0.087,2.031,0.263c0.652,0.175,1.12,0.345,1.4,0.508l0.455,0.245l0.734-0.63h0.141l0.42,4.307
	h-0.21c-0.187-1.19-0.694-2.246-1.522-3.169c-0.829-0.922-1.933-1.383-3.31-1.383h-0.14c-0.98,0.023-1.751,0.28-2.312,0.771
	c-0.56,0.49-0.84,1.214-0.84,2.171c0,0.817,0.309,1.523,0.928,2.118c0.618,0.595,1.365,1.091,2.241,1.488
	c0.875,0.397,1.756,0.817,2.644,1.26c0.887,0.444,1.64,1.051,2.258,1.821c0.619,0.77,0.929,1.693,0.929,2.766
	c0,1.494-0.503,2.691-1.506,3.59c-1.004,0.898-2.288,1.348-3.853,1.348c-0.747,0-1.494-0.117-2.24-0.35
	c-0.748-0.233-1.308-0.467-1.681-0.701l-0.525-0.314l-0.91,1.19h-0.141l-0.35-5.112h0.21c0.373,1.377,1.038,2.573,1.996,3.589
	c0.957,1.016,2.171,1.523,3.641,1.523c1.121,0,1.979-0.263,2.574-0.788s0.894-1.277,0.894-2.258c0-0.771-0.305-1.447-0.911-2.031
	c-0.607-0.584-1.343-1.08-2.206-1.488s-1.728-0.846-2.591-1.313c-0.864-0.466-1.6-1.103-2.206-1.908
	c-0.607-0.805-0.91-1.756-0.91-2.854c0-1.377,0.473-2.497,1.418-3.361C147.025,9.116,148.175,8.684,149.529,8.684z"/>
<path d="M164.239,25.666c1.4,0,2.532-0.332,3.396-0.998c0.863-0.665,1.47-1.43,1.82-2.293h0.21c-0.373,0.957-1.05,1.82-2.03,2.591
	c-0.981,0.771-2.312,1.155-3.992,1.155c-2.475,0-4.453-0.775-5.935-2.328c-1.483-1.553-2.224-3.625-2.224-6.215
	c0-2.498,0.747-4.604,2.241-6.32c1.493-1.716,3.349-2.574,5.567-2.574c1.96,0,3.513,0.59,4.656,1.768
	c1.144,1.179,1.751,2.854,1.821,5.025h-10.89c-0.047,0.887-0.07,1.599-0.07,2.136C158.812,22.982,160.62,25.666,164.239,25.666z
	 M163.294,8.858c-2.568,0-4.027,2.113-4.377,6.338h7.423c0.21-0.561,0.314-1.261,0.314-2.101
	C166.654,10.271,165.534,8.858,163.294,8.858z"/>
<path d="M184.999,21.92c0,1.447,0.128,2.369,0.385,2.766c0.257,0.397,0.957,0.643,2.102,0.735v0.175h-7.738v-0.175
	c1.05-0.069,1.691-0.298,1.926-0.683c0.233-0.385,0.351-1.324,0.351-2.818v-7.284c0-1.867-0.27-3.215-0.806-4.044
	c-0.537-0.828-1.4-1.243-2.592-1.243c-1.19,0-2.206,0.42-3.046,1.261c-0.841,0.84-1.261,2.031-1.261,3.572v7.739
	c0,1.447,0.128,2.369,0.385,2.766c0.257,0.397,0.946,0.643,2.066,0.735v0.175h-7.738v-0.175c1.05-0.069,1.698-0.298,1.943-0.683
	s0.368-1.324,0.368-2.818v-8.719c0-1.191-0.158-1.972-0.474-2.346c-0.314-0.373-1.01-0.56-2.083-0.56v-0.21
	c0.653-0.023,1.441-0.151,2.363-0.385s1.687-0.467,2.294-0.701l0.875-0.315v3.256c1.237-2.171,3.116-3.256,5.638-3.256
	c1.634,0,2.883,0.415,3.746,1.243c0.863,0.829,1.296,2.049,1.296,3.66V21.92z"/>
<path d="M190.227,5.077v4.132h4.657v0.245h-4.657v12.535c0,2.124,0.771,3.187,2.312,3.187c0.536,0,1.044-0.123,1.523-0.367
	c0.478-0.246,0.822-0.496,1.032-0.753l0.315-0.351l0.105,0.176c-0.117,0.163-0.286,0.367-0.508,0.612
	c-0.223,0.245-0.713,0.577-1.471,0.998c-0.759,0.42-1.559,0.63-2.398,0.63c-2.592,0-3.887-1.318-3.887-3.957V9.454h-1.821V9.279
	c0.91-0.21,1.821-0.718,2.731-1.523c0.91-0.805,1.541-1.698,1.891-2.678H190.227z"/>
</svg>
